<svg xmlns="http://www.w3.org/2000/svg" width="70.31" height="87.157" viewBox="0 0 70.31 87.157">
  <g id="_ffffffff" data-name="#ffffffff" transform="translate(-2.5 -1.48)">
    <path id="Path_264" data-name="Path 264" d="M49.86,1.48a32.957,32.957,0,0,1,3.23,4.708,33.442,33.442,0,0,1,7.452.629A29.4,29.4,0,0,0,54.45,9.329a28.013,28.013,0,0,1,1.224,5.155,20.585,20.585,0,0,0-4.146-2.947,17.864,17.864,0,0,0-3.188,4.421,37.621,37.621,0,0,1,.042-5.519,22.332,22.332,0,0,0-5.852-.5,22.139,22.139,0,0,1,6.2-2.909C49.037,5.166,49.429,3.317,49.86,1.48Z" transform="translate(-23.128)" fill="#fff"/>
    <path id="Path_265" data-name="Path 265" d="M102.093,7.809a32.71,32.71,0,0,1,2.736-4.349q.488,2.1.916,4.2a20.569,20.569,0,0,1,5.839,1.153,21.405,21.405,0,0,0-5.485,1.414c.063,1.414.118,2.833.148,4.252a21.4,21.4,0,0,0-2.863-2.6,16.9,16.9,0,0,0-3.158,3.513,29.514,29.514,0,0,1,.76-4.7A23.651,23.651,0,0,0,96.6,9.667,26.15,26.15,0,0,1,102.093,7.809Z" transform="translate(-54.368 -1.144)" fill="#fff"/>
    <path id="Path_266" data-name="Path 266" d="M4.991,37.32a33.7,33.7,0,0,1,8.162,4.193,30.478,30.478,0,0,1,8.723-1.769,43.745,43.745,0,0,0-4.911,5.134,26.215,26.215,0,0,1,4.273,6.439,23.908,23.908,0,0,0-6.646-2.9,36.4,36.4,0,0,0-2.614,6.139,43.338,43.338,0,0,0-1.87-6.751A23.16,23.16,0,0,0,2.5,48.64a26.71,26.71,0,0,1,6.008-4.982C7.423,41.5,6.287,39.364,4.991,37.32Z" transform="translate(0 -20.707)" fill="#fff"/>
    <path id="Path_267" data-name="Path 267" d="M40.913,56.737c1.558-3.644,4.535-6.8,8.5-7.727-2.9,2.96-5.413,6.68-5.578,10.953A8.417,8.417,0,0,0,49.1,67.917c4.522,1.824,9.64.456,14.157,2.314A13.024,13.024,0,0,1,71.3,77.8c1.68,4.121.849,8.685-.279,12.836-.481,1.845-1.279,3.855-.528,5.734a3.223,3.223,0,0,0,3.855,1.588,13.01,13.01,0,0,0,5.873-3.184,34.29,34.29,0,0,1-13.549,16.247,33.748,33.748,0,0,1-25.355,4.227A33.571,33.571,0,0,1,15.33,83.553,29.142,29.142,0,0,0,26.312,95.725a16.12,16.12,0,0,0,11.894,1.946c4.29-1.009,8.537-3.4,10.788-7.309A8.256,8.256,0,0,0,47.913,80.9c-2.685-3.12-6.773-4.408-9.868-7.022-3.129-2.706-5.459-6.688-5.253-10.927a13.439,13.439,0,0,1,2.453-7.292,13.77,13.77,0,0,0,.076,8.145,8.65,8.65,0,0,0,3.627,5.223,14.9,14.9,0,0,1-1.858-9.462c.726-3.488,2.432-7.064,5.569-8.985A9.133,9.133,0,0,0,40.913,56.737Z" transform="translate(-7.413 -27.461)" fill="#fff"/>
  </g>
</svg>
